<svg xmlns="http://www.w3.org/2000/svg" viewBox="0 0 800 1000" width="800" height="1000" role="img">
  <defs>
    <radialGradient id="bg" cx="0.5" cy="0.42" r="0.78">
      <stop offset="0" stop-color="#fdfdfe"/>
      <stop offset="1" stop-color="#e9edf3"/>
    </radialGradient>
    <radialGradient id="contact" cx="0.5" cy="0.5" r="0.5">
      <stop offset="0" stop-color="#0a1526" stop-opacity="0.20"/>
      <stop offset="1" stop-color="#0a1526" stop-opacity="0"/>
    </radialGradient>
  </defs>
  <rect width="800" height="1000" fill="url(#bg)"/>
  <ellipse cx="400" cy="593" rx="296" ry="34" fill="url(#contact)"/>
  <g transform="translate(38.4 276.2) scale(0.9565)">
    <defs><clipPath id="sole-batafloatersandalmens"><path d="M34 242 L722 238 C734 280 710 306 660 308 L96 308 C44 304 22 280 34 242 Z"/></clipPath></defs>
    <path d="M34 242 L722 238 C734 280 710 306 660 308 L96 308 C44 304 22 280 34 242 Z" fill="#5d5d5d"/>
    <rect x="-40" y="272" width="840" height="80" fill="#383838" clip-path="url(#sole-batafloatersandalmens)"/>
    <path d="M34 242 L722 238 C734 280 710 306 660 308 L96 308 C44 304 22 280 34 242 Z" fill="none" stroke="rgba(255,255,255,0.34)" stroke-width="2"/>
    <path d="M136 246 C144 224 176 214 216 213 L296 213 C336 214 366 224 374 246 M400 246 C408 222 442 210 484 209 L564 209 C604 210 632 222 640 244 M672 244 C700 232 712 212 708 190 C705 174 694 164 678 160" fill="none" stroke="#181818" stroke-width="24" stroke-linecap="round" stroke-linejoin="round"/>
    
    <path d="M40 274 L716 270" fill="none" stroke="rgba(255,255,255,0.34)" stroke-width="4" stroke-linecap="round"/>
  </g>
</svg>
